<svg id="Capa_1" enable-background="new 0 0 512.001 512.001" height="512" viewBox="0 0 512.001 512.001" width="512" xmlns="http://www.w3.org/2000/svg"><g><g><g><path d="m318.428 445.861h-124.855c-45.062 0-81.591-36.53-81.591-81.591v-157.483h288.038v157.483c-.001 45.062-36.53 81.591-81.592 81.591z" fill="#ced3dd"/></g><g><path d="m111.982 206.787h-32.22v-20.086c0-97.589 79.112-176.701 176.702-176.701 97.59 0 176.701 79.112 176.701 176.701v20.086h-33.146z" fill="#ffce69"/></g><g><path d="m179.604 502 7.54-56.39c2.12.17 4.27.25 6.43.25h124.85c2.16 0 4.31-.08 6.43-.25l7.54 56.39z" fill="#ced3dd"/></g><g><path d="m193.936 324.993c-11.394 0-20.631-9.237-20.631-20.631v-25.586c0-11.394 9.237-20.631 20.631-20.631 11.394 0 20.631 9.237 20.631 20.631v25.586c0 11.395-9.237 20.631-20.631 20.631z" fill="#f574a9"/></g><g><path d="m314.763 324.993c-11.394 0-20.631-9.237-20.631-20.631v-25.586c0-11.394 9.237-20.631 20.631-20.631 11.394 0 20.631 9.237 20.631 20.631v25.586c0 11.395-9.237 20.631-20.631 20.631z" fill="#f574a9"/></g><g><path d="m111.982 206.787h-28.832c-8.536 0-16.723 3.391-22.759 9.427l-1.231 1.231c-6.036 6.036-9.427 14.223-9.427 22.759v34.404c0 8.536 3.391 16.723 9.427 22.759l13.116 13.116c6.036 6.036 14.223 9.427 22.759 9.427h16.947z" fill="#ced3dd"/></g><g><path d="m400.019 206.787h28.832c8.536 0 16.723 3.391 22.759 9.427l1.231 1.231c6.036 6.036 9.427 14.223 9.427 22.759v34.404c0 8.536-3.391 16.723-9.427 22.759l-13.116 13.116c-6.036 6.036-14.223 9.427-22.759 9.427h-16.947z" fill="#ced3dd"/></g><g><circle cx="196.228" cy="87.349" fill="#fff" r="21.838"/></g><g><circle cx="296.52" cy="145.084" fill="#fff" r="21.838"/></g></g><path d="m410.019 364.27v-34.36h6.947c11.269 0 21.862-4.388 29.83-12.355l13.116-13.116c7.968-7.968 12.355-18.562 12.355-29.829v-34.404c0-11.269-4.388-21.862-12.357-29.831l-1.229-1.229c-4.463-4.462-9.749-7.8-15.516-9.875v-12.568c.001-101.616-85.024-186.703-186.701-186.703-101.587 0-186.702 84.976-186.702 186.701v12.257c-6.125 2.043-11.742 5.485-16.441 10.184l-1.232 1.231c-7.967 7.968-12.355 18.562-12.355 29.83v34.404c0 11.269 4.388 21.862 12.356 29.83l13.115 13.115c7.968 7.968 18.562 12.355 29.83 12.355h6.947v34.36c0 44.464 31.85 81.623 73.932 89.877l-6.221 46.529c-.732 5.474 3.112 10.505 8.586 11.237 5.472.724 10.504-3.112 11.237-8.587l6.347-47.464h120.274l6.347 47.464c.672 5.024 4.965 8.677 9.899 8.676.441 0 .889-.029 1.338-.089 5.474-.732 9.318-5.764 8.586-11.237l-6.224-46.548c8.742-1.719 17.227-4.694 25.102-8.859 4.882-2.582 6.747-8.633 4.165-13.515s-8.632-6.748-13.515-4.165c-10.273 5.433-21.79 8.271-33.41 8.271h-124.85c-38.964 0-71.592-32.635-71.592-71.591v-147.479h268.038v147.483c0 5.522 4.477 10 10 10s9.998-4.478 9.998-10zm35.751-139.753c4.19 4.19 6.498 9.762 6.498 15.688v34.404c0 5.926-2.308 11.497-6.498 15.688l-13.116 13.115c-4.19 4.19-9.761 6.498-15.688 6.498h-6.947v-93.122h18.832c5.926 0 11.497 2.308 15.689 6.5zm-343.789 85.392h-6.947c-5.926 0-11.498-2.308-15.688-6.498l-13.115-13.115c-4.19-4.19-6.498-9.762-6.498-15.688v-34.404c0-5.926 2.308-11.497 6.497-15.687l1.232-1.231c4.19-4.191 9.762-6.499 15.688-6.499h18.832v93.122zm273.491-113.122 11.1-11.1c1.875-1.876 2.929-4.419 2.929-7.071v-43.939c0-5.522-4.477-10-10-10s-10 4.478-10 10v39.797l-22.313 22.313h-103.486v-35.466c0-5.522-4.477-10-10-10s-10 4.478-10 10v35.466h-49.126v-21.118l28.724-28.724c1.875-1.876 2.929-4.419 2.929-7.071v-22.305c12.67-4.204 21.838-16.158 21.838-30.22 0-17.555-14.282-31.837-31.838-31.837-17.555 0-31.837 14.282-31.837 31.837 0 14.062 9.168 26.016 21.837 30.22v18.163l-28.724 28.724c-1.875 1.876-2.929 4.419-2.929 7.071v25.261h-64.814v-10.086c0-25.323 5.686-49.339 15.831-70.855l15.164 15.164v18.939c0 5.522 4.477 10 10 10s10-4.478 10-10v-23.082c0-2.652-1.054-5.195-2.929-7.071l-22.195-22.195c27.911-43.959 75.821-74.021 130.83-77.292v35.33c0 2.652 1.054 5.195 2.929 7.071l37.127 37.127v15.027c-12.67 4.204-21.838 16.158-21.838 30.22 0 17.556 14.282 31.838 31.838 31.838 17.555 0 31.837-14.282 31.837-31.838 0-14.062-9.168-26.016-21.837-30.22v-19.17c0-2.652-1.054-5.195-2.929-7.071l-37.127-37.127v-31.188c32.089 1.908 61.766 12.923 86.464 30.507l-17.91 17.91c-1.875 1.876-2.929 4.419-2.929 7.071v28.39c0 5.522 4.477 10 10 10s10-4.478 10-10v-24.248l16.496-16.496c33.514 30.513 54.581 74.471 54.581 123.258v10.086zm-179.244-97.6c-6.527 0-11.837-5.311-11.837-11.838s5.31-11.837 11.837-11.837 11.838 5.31 11.838 11.837-5.311 11.838-11.838 11.838zm100.292 34.059c6.527 0 11.837 5.311 11.837 11.838s-5.31 11.838-11.837 11.838-11.838-5.311-11.838-11.838 5.311-11.838 11.838-11.838z"/><path d="m224.566 278.776c0-16.89-13.741-30.631-30.63-30.631-16.89 0-30.631 13.741-30.631 30.631v25.586c0 16.89 13.741 30.631 30.631 30.631s30.63-13.741 30.63-30.631zm-20 25.586c0 5.862-4.769 10.631-10.63 10.631s-10.631-4.769-10.631-10.631v-25.586c0-5.862 4.769-10.631 10.631-10.631s10.63 4.769 10.63 10.631z"/><path d="m314.763 334.993c16.89 0 30.63-13.741 30.63-30.631v-25.586c0-16.89-13.741-30.631-30.631-30.631s-30.63 13.741-30.63 30.631v25.586c0 16.89 13.741 30.631 30.631 30.631zm-10.631-56.217c0-5.862 4.769-10.631 10.631-10.631s10.63 4.769 10.63 10.631v25.586c0 5.862-4.769 10.631-10.63 10.631-5.862 0-10.63-4.769-10.63-10.631v-25.586z"/><path d="m228.478 392.485h52.514c5.523 0 10-4.478 10-10s-4.477-10-10-10h-52.514c-5.523 0-10 4.478-10 10s4.477 10 10 10z"/><path d="m396.521 401.03c-2.984-4.56-9.36-5.757-13.86-2.761-4.536 3.02-5.789 9.325-2.77 13.86 3.026 4.546 9.336 5.761 13.87 2.76 4.539-3.004 5.774-9.344 2.76-13.859z"/></g></svg>