<svg height="480pt" viewBox="0 -44 480.09819 480" width="480pt" xmlns="http://www.w3.org/2000/svg"><path d="m24 16.460938h112c8.835938 0 16 7.164062 16 16v336c0 8.835937-7.164062 16-16 16h-112c-8.835938 0-16-7.164063-16-16v-336c0-8.835938 7.164062-16 16-16zm0 0" fill="#4891d3"/><path d="m96 360.140625c-35.347656 0-64-28.652344-64-64v-280h-8c-8.835938 0-16 7.164063-16 16v336c0 8.835937 7.164062 16 16 16h112c8.835938 0 16-7.164063 16-16v-8zm0 0" fill="#2d72bc"/><path d="m120 296.460938c0 22.089843-17.910156 40-40 40s-40-17.910157-40-40c0-22.089844 17.910156-40 40-40s40 17.910156 40 40zm0 0" fill="#fcbc04"/><path d="m40 64.460938h80v144h-80zm0 0" fill="#f9e109"/><path d="m80 104.140625h-24c-4.417969 0-8-3.582031-8-8s3.582031-8 8-8h24c4.417969 0 8 3.582031 8 8s-3.582031 8-8 8zm0 0" fill="#a1d51c"/><path d="m96 144.140625h-24c-4.417969 0-8-3.582031-8-8s3.582031-8 8-8h24c4.417969 0 8 3.582031 8 8s-3.582031 8-8 8zm0 0" fill="#a1d51c"/><path d="m40 176.460938h80v32h-80zm0 0" fill="#fcbc04"/><path d="m80 256.140625c-14.605469.078125-28.007812 8.113281-34.960938 20.960937 12.367188-6.660156 27.324219-6.339843 39.398438.835938s19.5 20.15625 19.5625 34.203125c-.046875 6.644531-1.78125 13.167969-5.039062 18.960937 15.851562-8.8125 23.792968-27.1875 19.347656-44.773437-4.449219-17.582031-20.171875-29.972656-38.308594-30.1875zm0 0" fill="#e59730"/><path d="m120 384.140625h16c8.835938 0 16-7.164063 16-16v-336c0-8.558594-32 352-32 352zm0 0" fill="#2d72bc"/><path d="m313.738281 17.761719 111.574219-9.761719c8.800781-.769531 16.5625 5.742188 17.332031 14.542969l29.285157 334.722656c.769531 8.800781-5.742188 16.5625-14.542969 17.332031l-111.574219 9.761719c-8.804688.769531-16.5625-5.742187-17.335938-14.542969l-29.28125-334.722656c-.773437-8.800781 5.738282-16.5625 14.542969-17.332031zm0 0" fill="#4891d3"/><path d="m433.921875 291.820312c0 22.09375-17.910156 40-40 40-22.09375 0-40-17.90625-40-40 0-22.089843 17.90625-40 40-40 22.089844 0 40 17.910157 40 40zm0 0" fill="#fcbc04"/><path d="m333.902344 64.191406 79.695312-6.972656 12.550782 143.453125-79.695313 6.972656zm0 0" fill="#f9e109"/><path d="m396.640625 139.019531-24 2.082031c-4.417969.375-8.304687-2.902343-8.679687-7.320312s2.902343-8.304688 7.320312-8.679688l24-2.082031c4.417969-.394531 8.320312 2.863281 8.71875 7.28125s-2.863281 8.324219-7.28125 8.71875zm0 0" fill="#a1d51c"/><path d="m343.625 175.738281 79.695312-6.96875 2.789063 31.875-79.695313 6.972657zm0 0" fill="#fcbc04"/><path d="m390.480469 251.980469c-14.574219 1.351562-27.246094 10.558593-33.039063 24 5.507813-3.777344 11.902344-6.066407 18.558594-6.640625 14.074219-1.199219 27.742188 5.109375 35.953125 16.605468 8.210937 11.496094 9.75 26.46875 4.046875 39.394532 15.050781-10.152344 21.371094-29.167969 15.402344-46.3125-5.972656-17.144532-22.742188-28.117188-40.84375-26.726563zm0 0" fill="#e59730"/><path d="m333.855469 64.1875 79.695312-6.972656 3.484375 39.847656-79.695312 6.972656zm0 0" fill="#7ab92d"/><path d="m415.441406 354.222656c-35.1875 3.09375-66.230468-22.898437-69.363281-58.082031l-24-278.878906-8 .640625c-4.234375.363281-8.148437 2.398437-10.878906 5.65625-2.734375 3.257812-4.054688 7.46875-3.679688 11.703125l29.28125 334.71875c.964844 8.527343 8.480469 14.773437 17.039063 14.160156l111.519531-9.761719c8.75-.722656 15.285156-8.359375 14.640625-17.117187l-.640625-8zm0 0" fill="#2d72bc"/><path d="m168 16.460938h112c8.835938 0 16 7.164062 16 16v336c0 8.835937-7.164062 16-16 16h-112c-8.835938 0-16-7.164063-16-16v-336c0-8.835938 7.164062-16 16-16zm0 0" fill="#f9e109"/><path d="m264 296.460938c0 22.089843-17.910156 40-40 40s-40-17.910157-40-40c0-22.089844 17.910156-40 40-40s40 17.910156 40 40zm0 0" fill="#fcbc04"/><path d="m184 64.460938h80v144h-80zm0 0" fill="#57b7eb"/><path d="m184 176.460938h80v32h-80zm0 0" fill="#fcbc04"/><path d="m224 256.140625c-14.605469.078125-28.007812 8.113281-34.960938 20.960937 12.367188-6.660156 27.324219-6.339843 39.398438.835938s19.5 20.15625 19.5625 34.203125c-.046875 6.644531-1.78125 13.167969-5.039062 18.960937 15.851562-8.8125 23.792968-27.1875 19.347656-44.773437-4.449219-17.582031-20.171875-29.972656-38.308594-30.1875zm0 0" fill="#e59730"/><path d="m256 384.140625h24c8.835938 0 16-7.164063 16-16v-336c0-8.558594-40 352-40 352zm0 0" fill="#fcbc04"/><path d="m184 128.460938h80v48h-80zm0 0" fill="#a1d51c"/><path d="m240 360.140625c-35.347656 0-64-28.652344-64-64v-280h-8c-8.835938 0-16 7.164063-16 16v336c0 8.835937 7.164062 16 16 16h112c8.835938 0 16-7.164063 16-16v-8zm0 0" fill="#fcbc04"/><g fill="#39519d"><path d="m120 288.140625c-4.417969 0-8 3.582031-8 8 0 17.671875-14.328125 32-32 32s-32-14.328125-32-32 14.328125-32 32-32c4.417969 0 8-3.582031 8-8s-3.582031-8-8-8c-26.507812 0-48 21.492187-48 48 0 26.511719 21.492188 48 48 48s48-21.488281 48-48c0-4.417969-3.582031-8-8-8zm0 0"/><path d="m120 56.140625h-80c-4.417969 0-8 3.582031-8 8v144c0 4.417969 3.582031 8 8 8h80c4.417969 0 8-3.582031 8-8v-72c0-4.417969-3.582031-8-8-8h-48c-4.417969 0-8 3.582031-8 8s3.582031 8 8 8h40v24h-64v-64h32c4.417969 0 8-3.582031 8-8s-3.582031-8-8-8h-32v-16h64v24c0 4.417969 3.582031 8 8 8s8-3.582031 8-8v-32c0-4.417969-3.582031-8-8-8zm-8 128v16h-64v-16zm0 0"/><path d="m280 8.140625h-112c-5.921875.035156-11.617188 2.257813-16 6.238281-4.382812-3.980468-10.078125-6.203125-16-6.238281h-112c-13.253906 0-24 10.746094-24 24v336c0 13.253906 10.746094 24 24 24h112c5.921875-.035156 11.617188-2.257813 16-6.238281 4.382812 3.980468 10.078125 6.203125 16 6.238281h112c13.253906 0 24-10.746094 24-24v-336c0-13.253906-10.746094-24-24-24zm-144 368h-112c-4.417969 0-8-3.582031-8-8v-336c0-4.417969 3.582031-8 8-8h112c4.417969 0 8 3.582031 8 8v336c0 4.417969-3.582031 8-8 8zm152-8c0 4.417969-3.582031 8-8 8h-112c-4.417969 0-8-3.582031-8-8v-336c0-4.417969 3.582031-8 8-8h112c4.417969 0 8 3.582031 8 8zm0 0"/><path d="m224 248.140625c-26.507812 0-48 21.492187-48 48 0 26.511719 21.492188 48 48 48s48-21.488281 48-48c0-26.507813-21.492188-48-48-48zm0 80c-17.671875 0-32-14.328125-32-32s14.328125-32 32-32 32 14.328125 32 32-14.328125 32-32 32zm0 0"/><path d="m264 56.140625h-80c-4.417969 0-8 3.582031-8 8v64c0 4.417969 3.582031 8 8 8h72v24h-72c-4.417969 0-8 3.582031-8 8v40c0 4.417969 3.582031 8 8 8h80c4.417969 0 8-3.582031 8-8v-144c0-4.417969-3.582031-8-8-8zm-72 64v-16h32c4.417969 0 8-3.582031 8-8s-3.582031-8-8-8h-32v-16h64v48zm0 80v-24h64v24zm0 0"/><path d="m450.640625 21.902344c-1.183594-13.183594-12.816406-22.917969-26-21.761719l-97.359375 8.398437c-2.125.183594-4.089844 1.207032-5.457031 2.84375-1.367188 1.640626-2.023438 3.753907-1.824219 5.878907.421875 4.394531 4.324219 7.617187 8.71875 7.199219l97.28125-8.320313c2.125-.199219 4.238281.457031 5.875 1.824219 1.640625 1.367187 2.664062 3.332031 2.84375 5.457031l29.28125 334.558594c.183594 2.113281-.476562 4.214843-1.839844 5.839843-1.371094 1.617188-3.328125 2.625-5.441406 2.800782l-111.597656 9.519531c-4.394532.371094-8.257813-2.886719-8.640625-7.28125l-.480469-5.277344c-.375-4.417969-4.261719-7.695312-8.679688-7.320312-4.417968.375-7.695312 4.261719-7.320312 8.679687l.480469 5.597656c1.082031 12.4375 11.515625 21.96875 24 21.921876h2.078125l111.601562-9.761719c6.359375-.546875 12.238282-3.605469 16.339844-8.5 4.097656-4.894531 6.078125-11.222657 5.5-17.578125zm0 0"/><path d="m424.800781 255.019531c-16.25-13.605469-39.5-14.945312-57.203125-3.296875-17.707031 11.652344-25.675781 33.535156-19.605468 53.839844 6.066406 20.308594 24.734374 34.230469 45.929687 34.257812h4.15625c19.457031-1.589843 36.011719-14.796874 41.875-33.414062 5.867187-18.617188-.125-38.929688-15.152344-51.386719zm1.039063 34c1.566406 17.601563-11.433594 33.140625-29.035156 34.707031-17.605469 1.566407-33.144532-11.429687-34.710938-29.03125-1.570312-17.601562 11.425781-33.144531 29.027344-34.714843h2.878906c7.503906-.011719 14.765625 2.65625 20.480469 7.519531 6.507812 5.4375 10.59375 13.234375 11.359375 21.679688zm0 0"/><path d="m326.320312 69.421875 3.039063 35.359375 9.121094 104c.375 4.132812 3.847656 7.296875 8 7.28125h.71875l80-7.042969c2.113281-.175781 4.070312-1.179687 5.441406-2.796875 1.363281-1.628906 2.023437-3.726562 1.839844-5.84375l-2.800781-32-6.238282-72-3.519531-40c-.382813-4.390625-4.246094-7.648437-8.640625-7.277344l-80 6.960938c-1.0625.085938-2.097656.386719-3.042969.878906-1.863281.96875-3.273437 2.636719-3.917969 4.640625-.195312 1.003907-.195312 2.035157 0 3.039063zm19.679688 41.917969 64-5.597656 4.878906 56-64 5.597656zm8 88-1.359375-16 64-5.519532 1.359375 16zm52.640625-133.117188 2.078125 24-64 5.597656-2.078125-24zm0 0"/></g></svg>