<svg version="1.1" id="Capa_1" xmlns="http://www.w3.org/2000/svg" xmlns:xlink="http://www.w3.org/1999/xlink" x="0px" y="0px"	 viewBox="0 0 512 512" style="enable-background:new 0 0 512 512;" xml:space="preserve"><polygon style="fill:#8475FF;" points="366.846,256 477.355,319.802 477.355,383.703 255.138,512 34.645,384.698 34.645,319.802 	143.864,256.251 "/><polygon style="fill:#FF9134;" points="255.138,0 34.645,128.297 34.645,193.193 255.138,320.495 477.355,192.197 477.355,128.297 	"/><polygon style="fill:#FF6936;" points="255.138,0 477.355,128.297 255.138,256.595 34.645,128.297 "/><polygon style="fill:#30469A;" points="255.138,448.1 255.138,512 34.645,384.698 34.645,319.802 "/><polygon style="fill:#604EE8;" points="255.138,320.495 366.846,256 477.355,319.802 255.138,448.1 34.645,319.802 143.864,256.251 	"/><polygon style="fill:#FF4404;" points="255.138,256.595 255.138,320.495 34.645,193.193 34.645,128.297 "/><polygon style="fill:#FF9134;" points="477.355,128.297 255.138,256.595 255.138,320.495 477.355,192.197 "/><g></g><g></g><g></g><g></g><g></g><g></g><g></g><g></g><g></g><g></g><g></g><g></g><g></g><g></g><g></g></svg>